# xmcd
#
# Track frame offsets: 
#        150
#        28200
#        41025
#        70875
#        89325
#        113462
#        139950
#        158400
#
# Disc length: 2484 seconds
#
# Revision: 3
# Processed by: cddbd v1.5.2PL0 Copyright (c) Steve Scherf et al.
# Submitted via: ExactAudioCopyFreeDBPlugin 1.0
#
DISCID=6409b208
DTITLE=Eddy Clearwater - Boogie My Blues Away
DYEAR=1995
DGENRE=Blues
TTITLE0=Muddy Waters Goin' To Run Clear
TTITLE1=Boogie My Blues Away
TTITLE2=Came Up The Hard Way
TTITLE3=Blues At Theresa's
TTITLE4=I Don't Know Why
TTITLE5=Tore Up All The Time
TTITLE6=Real Fine Woman
TTITLE7=Mayor Daley's Blues
EXTD=
EXTT0=
EXTT1=
EXTT2=
EXTT3=
EXTT4=
EXTT5=
EXTT6=
EXTT7=
PLAYORDER=
